<svg width="16" height="17" viewBox="0 0 16 17" fill="none" xmlns="http://www.w3.org/2000/svg">
<mask id="path-1-inside-1_1_2" fill="white">
<path d="M0 3.5C0 1.84315 1.34315 0.5 3 0.5H13C14.6569 0.5 16 1.84315 16 3.5V13.5C16 15.1569 14.6569 16.5 13 16.5H3C1.34315 16.5 0 15.1569 0 13.5V3.5Z"/>
</mask>
<path d="M0 3.5C0 1.84315 1.34315 0.5 3 0.5H13C14.6569 0.5 16 1.84315 16 3.5V13.5C16 15.1569 14.6569 16.5 13 16.5H3C1.34315 16.5 0 15.1569 0 13.5V3.5Z" fill="url(#paint0_radial_1_2)"/>
<g clip-path="url(#clip0_1_2)">
<path d="M5.99638 12.8451L4.87183 12.0014V3.82001H8.43488C9.04745 3.82001 9.59333 4.04432 10.0381 4.26537C10.4856 4.48377 11.4733 5.52757 11.7157 5.93773C11.958 6.34522 12.0792 6.82862 12.0792 7.38792C12.0792 7.95522 11.9554 8.43728 11.7077 8.83412C11.46 9.2283 11.1084 9.52926 10.653 9.737C10.1976 9.94208 9.93947 10.0446 9.31625 10.0446H7.17891V8.48655H8.94871C9.247 8.48655 9.49602 8.44794 9.69577 8.3707C9.89819 8.2908 10.0513 8.17095 10.1552 8.01115C10.2591 7.84868 10.311 7.64094 10.311 7.38792C10.311 7.1349 10.2591 6.92583 10.1552 6.7607C10.0513 6.59291 9.89819 6.46773 9.69577 6.38517C9.49336 6.29994 9.24434 6.25733 8.94871 6.25733H7.97392V12.8451H5.99638ZM10.7901 9.10578L12.8276 12.8451H10.4828L9.35864 12.0026L8.48528 9.10578H10.7901Z" fill="black" fill-opacity="0.2"/>
<path d="M4.87143 12V3.81818H8.25122C8.86379 3.81818 9.39247 3.92871 9.83725 4.14977C10.2847 4.36816 10.6296 4.68244 10.872 5.0926C11.1143 5.50009 11.2355 5.98349 11.2355 6.54279C11.2355 7.11009 11.1117 7.59215 10.864 7.98899C10.6163 8.38317 10.2647 8.68413 9.80928 8.89187C9.35385 9.09695 8.81452 9.19948 8.1913 9.19948H6.05396V7.64142H7.82375C8.12205 7.64142 8.37107 7.60281 8.57082 7.52557C8.77324 7.44567 8.92638 7.32582 9.03025 7.16602C9.13412 7.00355 9.18606 6.79581 9.18606 6.54279C9.18606 6.28977 9.13412 6.0807 9.03025 5.91557C8.92638 5.74778 8.77324 5.6226 8.57082 5.54004C8.36841 5.45481 8.11938 5.4122 7.82375 5.4122H6.84897V12H4.87143ZM9.47769 8.26065L11.5152 12H9.35784L7.36033 8.26065H9.47769Z" fill="white"/>
</g>
<path d="M0 0.5H16H0ZM16 13.5C16 15.5711 14.3211 17.25 12.25 17.25H3.75C1.67893 17.25 0 15.5711 0 13.5C0 14.7426 1.34315 15.75 3 15.75H13C14.6569 15.75 16 14.7426 16 13.5ZM0 16.5V0.5V16.5ZM16 0.5V16.5V0.5Z" fill="black" fill-opacity="0.2" mask="url(#path-1-inside-1_1_2)"/>
<defs>
<radialGradient id="paint0_radial_1_2" cx="0" cy="0" r="1" gradientUnits="userSpaceOnUse" gradientTransform="translate(-2.93333 9.56667) rotate(-4.87139) scale(23.5517)">
<stop stop-color="#FADF55"/>
<stop offset="1" stop-color="#BDDC02"/>
</radialGradient>
<clipPath id="clip0_1_2">
<rect width="12" height="12" fill="white" transform="translate(2 2.5)"/>
</clipPath>
</defs>
</svg>
